<mxfile host="app.diagrams.net" agent="Mozilla/5.0 (Windows NT 10.0; Win64; x64) AppleWebKit/537.36 (KHTML, like Gecko) Chrome/127.0.0.0 Safari/537.36 Edg/127.0.0.0" version="24.7.6" pages="5">
  <diagram name="Page-1" id="0783ab3e-0a74-02c8-0abd-f7b4e66b4bec">
    <mxGraphModel dx="1234" dy="615" grid="1" gridSize="10" guides="1" tooltips="1" connect="1" arrows="1" fold="1" page="1" pageScale="1" pageWidth="850" pageHeight="1100" background="none" math="0" shadow="0">
      <root>
        <mxCell id="0" />
        <mxCell id="1" parent="0" />
        <mxCell id="mKgyHcUlLRq5MaRAumDW-1" value=":User" style="shape=umlLifeline;perimeter=lifelinePerimeter;whiteSpace=wrap;html=1;container=1;dropTarget=0;collapsible=0;recursiveResize=0;outlineConnect=0;portConstraint=eastwest;newEdgeStyle={&quot;curved&quot;:0,&quot;rounded&quot;:0};" vertex="1" parent="1">
          <mxGeometry x="220" y="20" width="100" height="500" as="geometry" />
        </mxCell>
        <mxCell id="mKgyHcUlLRq5MaRAumDW-5" value="" style="html=1;points=[[0,0,0,0,5],[0,1,0,0,-5],[1,0,0,0,5],[1,1,0,0,-5]];perimeter=orthogonalPerimeter;outlineConnect=0;targetShapes=umlLifeline;portConstraint=eastwest;newEdgeStyle={&quot;curved&quot;:0,&quot;rounded&quot;:0};" vertex="1" parent="mKgyHcUlLRq5MaRAumDW-1">
          <mxGeometry x="45" y="70" width="10" height="360" as="geometry" />
        </mxCell>
        <mxCell id="mKgyHcUlLRq5MaRAumDW-2" value=":Web控制台" style="shape=umlLifeline;perimeter=lifelinePerimeter;whiteSpace=wrap;html=1;container=1;dropTarget=0;collapsible=0;recursiveResize=0;outlineConnect=0;portConstraint=eastwest;newEdgeStyle={&quot;curved&quot;:0,&quot;rounded&quot;:0};" vertex="1" parent="1">
          <mxGeometry x="360" y="20" width="100" height="430" as="geometry" />
        </mxCell>
        <mxCell id="mKgyHcUlLRq5MaRAumDW-6" value="" style="html=1;points=[[0,0,0,0,5],[0,1,0,0,-5],[1,0,0,0,5],[1,1,0,0,-5]];perimeter=orthogonalPerimeter;outlineConnect=0;targetShapes=umlLifeline;portConstraint=eastwest;newEdgeStyle={&quot;curved&quot;:0,&quot;rounded&quot;:0};" vertex="1" parent="mKgyHcUlLRq5MaRAumDW-2">
          <mxGeometry x="45" y="70" width="10" height="80" as="geometry" />
        </mxCell>
        <mxCell id="mKgyHcUlLRq5MaRAumDW-15" value="" style="html=1;points=[[0,0,0,0,5],[0,1,0,0,-5],[1,0,0,0,5],[1,1,0,0,-5]];perimeter=orthogonalPerimeter;outlineConnect=0;targetShapes=umlLifeline;portConstraint=eastwest;newEdgeStyle={&quot;curved&quot;:0,&quot;rounded&quot;:0};" vertex="1" parent="mKgyHcUlLRq5MaRAumDW-2">
          <mxGeometry x="45" y="280" width="10" height="110" as="geometry" />
        </mxCell>
        <mxCell id="XlX4bitMxS3o4QmPGMgn-13" value="" style="html=1;points=[[0,0,0,0,5],[0,1,0,0,-5],[1,0,0,0,5],[1,1,0,0,-5]];perimeter=orthogonalPerimeter;outlineConnect=0;targetShapes=umlLifeline;portConstraint=eastwest;newEdgeStyle={&quot;curved&quot;:0,&quot;rounded&quot;:0};" vertex="1" parent="mKgyHcUlLRq5MaRAumDW-2">
          <mxGeometry x="45" y="180" width="10" height="70" as="geometry" />
        </mxCell>
        <mxCell id="mKgyHcUlLRq5MaRAumDW-3" value=":database" style="shape=umlLifeline;perimeter=lifelinePerimeter;whiteSpace=wrap;html=1;container=1;dropTarget=0;collapsible=0;recursiveResize=0;outlineConnect=0;portConstraint=eastwest;newEdgeStyle={&quot;curved&quot;:0,&quot;rounded&quot;:0};" vertex="1" parent="1">
          <mxGeometry x="490" y="20" width="100" height="430" as="geometry" />
        </mxCell>
        <mxCell id="mKgyHcUlLRq5MaRAumDW-8" value="" style="html=1;points=[[0,0,0,0,5],[0,1,0,0,-5],[1,0,0,0,5],[1,1,0,0,-5]];perimeter=orthogonalPerimeter;outlineConnect=0;targetShapes=umlLifeline;portConstraint=eastwest;newEdgeStyle={&quot;curved&quot;:0,&quot;rounded&quot;:0};" vertex="1" parent="mKgyHcUlLRq5MaRAumDW-3">
          <mxGeometry x="45" y="80" width="10" height="40" as="geometry" />
        </mxCell>
        <mxCell id="mKgyHcUlLRq5MaRAumDW-20" value="" style="html=1;points=[[0,0,0,0,5],[0,1,0,0,-5],[1,0,0,0,5],[1,1,0,0,-5]];perimeter=orthogonalPerimeter;outlineConnect=0;targetShapes=umlLifeline;portConstraint=eastwest;newEdgeStyle={&quot;curved&quot;:0,&quot;rounded&quot;:0};" vertex="1" parent="mKgyHcUlLRq5MaRAumDW-3">
          <mxGeometry x="45" y="320" width="10" height="50" as="geometry" />
        </mxCell>
        <mxCell id="XlX4bitMxS3o4QmPGMgn-15" value="" style="html=1;points=[[0,0,0,0,5],[0,1,0,0,-5],[1,0,0,0,5],[1,1,0,0,-5]];perimeter=orthogonalPerimeter;outlineConnect=0;targetShapes=umlLifeline;portConstraint=eastwest;newEdgeStyle={&quot;curved&quot;:0,&quot;rounded&quot;:0};" vertex="1" parent="mKgyHcUlLRq5MaRAumDW-3">
          <mxGeometry x="45" y="190" width="10" height="30" as="geometry" />
        </mxCell>
        <mxCell id="mKgyHcUlLRq5MaRAumDW-4" value=":Scheduler" style="shape=umlLifeline;perimeter=lifelinePerimeter;whiteSpace=wrap;html=1;container=1;dropTarget=0;collapsible=0;recursiveResize=0;outlineConnect=0;portConstraint=eastwest;newEdgeStyle={&quot;curved&quot;:0,&quot;rounded&quot;:0};" vertex="1" parent="1">
          <mxGeometry x="610" y="20" width="100" height="430" as="geometry" />
        </mxCell>
        <mxCell id="mKgyHcUlLRq5MaRAumDW-17" value="" style="html=1;points=[[0,0,0,0,5],[0,1,0,0,-5],[1,0,0,0,5],[1,1,0,0,-5]];perimeter=orthogonalPerimeter;outlineConnect=0;targetShapes=umlLifeline;portConstraint=eastwest;newEdgeStyle={&quot;curved&quot;:0,&quot;rounded&quot;:0};" vertex="1" parent="mKgyHcUlLRq5MaRAumDW-4">
          <mxGeometry x="45" y="290" width="10" height="20" as="geometry" />
        </mxCell>
        <mxCell id="XlX4bitMxS3o4QmPGMgn-18" value="" style="html=1;points=[[0,0,0,0,5],[0,1,0,0,-5],[1,0,0,0,5],[1,1,0,0,-5]];perimeter=orthogonalPerimeter;outlineConnect=0;targetShapes=umlLifeline;portConstraint=eastwest;newEdgeStyle={&quot;curved&quot;:0,&quot;rounded&quot;:0};" vertex="1" parent="mKgyHcUlLRq5MaRAumDW-4">
          <mxGeometry x="45" y="240" width="10" height="20" as="geometry" />
        </mxCell>
        <mxCell id="mKgyHcUlLRq5MaRAumDW-7" value="创建任务" style="html=1;verticalAlign=bottom;endArrow=block;curved=0;rounded=0;entryX=0;entryY=0;entryDx=0;entryDy=5;entryPerimeter=0;" edge="1" parent="1">
          <mxGeometry width="80" relative="1" as="geometry">
            <mxPoint x="275" y="90" as="sourcePoint" />
            <mxPoint x="405" y="90" as="targetPoint" />
          </mxGeometry>
        </mxCell>
        <mxCell id="mKgyHcUlLRq5MaRAumDW-9" value="保存任务信息" style="html=1;verticalAlign=bottom;endArrow=block;curved=0;rounded=0;" edge="1" parent="1" target="mKgyHcUlLRq5MaRAumDW-8">
          <mxGeometry width="80" relative="1" as="geometry">
            <mxPoint x="415" y="100" as="sourcePoint" />
            <mxPoint x="540" y="100" as="targetPoint" />
            <mxPoint as="offset" />
          </mxGeometry>
        </mxCell>
        <mxCell id="mKgyHcUlLRq5MaRAumDW-10" value="返回创建结果" style="endArrow=open;endSize=12;dashed=1;html=1;rounded=0;" edge="1" parent="1">
          <mxGeometry x="-0.0037" width="160" relative="1" as="geometry">
            <mxPoint x="409.5" y="170" as="sourcePoint" />
            <mxPoint x="275" y="170" as="targetPoint" />
            <mxPoint as="offset" />
          </mxGeometry>
        </mxCell>
        <mxCell id="mKgyHcUlLRq5MaRAumDW-14" value="" style="endArrow=open;endSize=12;dashed=1;html=1;rounded=0;" edge="1" parent="1" target="mKgyHcUlLRq5MaRAumDW-6">
          <mxGeometry width="160" relative="1" as="geometry">
            <mxPoint x="530" y="140" as="sourcePoint" />
            <mxPoint x="420" y="140" as="targetPoint" />
          </mxGeometry>
        </mxCell>
        <mxCell id="mKgyHcUlLRq5MaRAumDW-16" value="立即执行任务" style="html=1;verticalAlign=bottom;endArrow=block;curved=0;rounded=0;" edge="1" parent="1">
          <mxGeometry width="80" relative="1" as="geometry">
            <mxPoint x="275" y="300" as="sourcePoint" />
            <mxPoint x="405" y="300" as="targetPoint" />
            <mxPoint as="offset" />
          </mxGeometry>
        </mxCell>
        <mxCell id="mKgyHcUlLRq5MaRAumDW-18" value="调度执行" style="html=1;verticalAlign=bottom;endArrow=block;curved=0;rounded=0;" edge="1" parent="1">
          <mxGeometry width="80" relative="1" as="geometry">
            <mxPoint x="415" y="310" as="sourcePoint" />
            <mxPoint x="655" y="310" as="targetPoint" />
          </mxGeometry>
        </mxCell>
        <mxCell id="mKgyHcUlLRq5MaRAumDW-19" value="" style="endArrow=open;endSize=12;dashed=1;html=1;rounded=0;" edge="1" parent="1" target="mKgyHcUlLRq5MaRAumDW-15">
          <mxGeometry width="160" relative="1" as="geometry">
            <mxPoint x="544.5" y="390" as="sourcePoint" />
            <mxPoint x="430" y="390" as="targetPoint" />
          </mxGeometry>
        </mxCell>
        <mxCell id="mKgyHcUlLRq5MaRAumDW-21" value="获取执行结果" style="html=1;verticalAlign=bottom;endArrow=block;curved=0;rounded=0;" edge="1" parent="1">
          <mxGeometry width="80" relative="1" as="geometry">
            <mxPoint x="415" y="340" as="sourcePoint" />
            <mxPoint x="535" y="340" as="targetPoint" />
          </mxGeometry>
        </mxCell>
        <mxCell id="mKgyHcUlLRq5MaRAumDW-22" value="" style="endArrow=open;endSize=12;dashed=1;html=1;rounded=0;" edge="1" parent="1">
          <mxGeometry width="160" relative="1" as="geometry">
            <mxPoint x="409.5" y="410" as="sourcePoint" />
            <mxPoint x="275" y="410" as="targetPoint" />
          </mxGeometry>
        </mxCell>
        <mxCell id="mKgyHcUlLRq5MaRAumDW-23" value="返回执行结果" style="edgeLabel;html=1;align=center;verticalAlign=middle;resizable=0;points=[];" vertex="1" connectable="0" parent="mKgyHcUlLRq5MaRAumDW-22">
          <mxGeometry x="0.0067" y="4" relative="1" as="geometry">
            <mxPoint as="offset" />
          </mxGeometry>
        </mxCell>
        <mxCell id="XlX4bitMxS3o4QmPGMgn-14" value="修改任务" style="html=1;verticalAlign=bottom;endArrow=block;curved=0;rounded=0;" edge="1" parent="1">
          <mxGeometry width="80" relative="1" as="geometry">
            <mxPoint x="275" y="200" as="sourcePoint" />
            <mxPoint x="405" y="200" as="targetPoint" />
          </mxGeometry>
        </mxCell>
        <mxCell id="XlX4bitMxS3o4QmPGMgn-16" value="保存修改信息" style="html=1;verticalAlign=bottom;endArrow=block;curved=0;rounded=0;" edge="1" parent="1">
          <mxGeometry width="80" relative="1" as="geometry">
            <mxPoint x="415" y="210" as="sourcePoint" />
            <mxPoint x="535" y="210" as="targetPoint" />
          </mxGeometry>
        </mxCell>
        <mxCell id="XlX4bitMxS3o4QmPGMgn-17" value="" style="endArrow=open;endSize=12;dashed=1;html=1;rounded=0;" edge="1" parent="1">
          <mxGeometry width="160" relative="1" as="geometry">
            <mxPoint x="535" y="240" as="sourcePoint" />
            <mxPoint x="415" y="240" as="targetPoint" />
          </mxGeometry>
        </mxCell>
        <mxCell id="XlX4bitMxS3o4QmPGMgn-19" value="通知任务变更" style="html=1;verticalAlign=bottom;endArrow=block;curved=0;rounded=0;" edge="1" parent="1" source="XlX4bitMxS3o4QmPGMgn-13" target="XlX4bitMxS3o4QmPGMgn-18">
          <mxGeometry width="80" relative="1" as="geometry">
            <mxPoint x="570" y="260" as="sourcePoint" />
            <mxPoint x="650" y="260" as="targetPoint" />
          </mxGeometry>
        </mxCell>
        <mxCell id="XlX4bitMxS3o4QmPGMgn-20" value="返回修改结果" style="endArrow=open;endSize=12;dashed=1;html=1;rounded=0;" edge="1" parent="1">
          <mxGeometry x="-0.0037" width="160" relative="1" as="geometry">
            <mxPoint x="405" y="269.5" as="sourcePoint" />
            <mxPoint x="275" y="269.5" as="targetPoint" />
            <mxPoint as="offset" />
          </mxGeometry>
        </mxCell>
      </root>
    </mxGraphModel>
  </diagram>
  <diagram id="861cap6MOT5sco66p-jn" name="第 2 页">
    <mxGraphModel dx="388" dy="508" grid="1" gridSize="10" guides="1" tooltips="1" connect="1" arrows="1" fold="1" page="1" pageScale="1" pageWidth="827" pageHeight="1169" math="0" shadow="0">
      <root>
        <mxCell id="0" />
        <mxCell id="1" parent="0" />
        <mxCell id="2XLCShjKRxZ3LYoeDsnX-1" value="Sheduler" style="shape=umlLifeline;perimeter=lifelinePerimeter;whiteSpace=wrap;html=1;container=1;dropTarget=0;collapsible=0;recursiveResize=0;outlineConnect=0;portConstraint=eastwest;newEdgeStyle={&quot;edgeStyle&quot;:&quot;elbowEdgeStyle&quot;,&quot;elbow&quot;:&quot;vertical&quot;,&quot;curved&quot;:0,&quot;rounded&quot;:0};" parent="1" vertex="1">
          <mxGeometry x="140" y="190" width="100" height="420" as="geometry" />
        </mxCell>
        <mxCell id="2XLCShjKRxZ3LYoeDsnX-4" value="" style="html=1;points=[[0,0,0,0,5],[0,1,0,0,-5],[1,0,0,0,5],[1,1,0,0,-5]];perimeter=orthogonalPerimeter;outlineConnect=0;targetShapes=umlLifeline;portConstraint=eastwest;newEdgeStyle={&quot;curved&quot;:0,&quot;rounded&quot;:0};" parent="2XLCShjKRxZ3LYoeDsnX-1" vertex="1">
          <mxGeometry x="45" y="60" width="10" height="330" as="geometry" />
        </mxCell>
        <mxCell id="2XLCShjKRxZ3LYoeDsnX-15" value="" style="endArrow=classic;html=1;rounded=0;" parent="2XLCShjKRxZ3LYoeDsnX-1" source="2XLCShjKRxZ3LYoeDsnX-4" target="2XLCShjKRxZ3LYoeDsnX-4" edge="1">
          <mxGeometry width="50" height="50" relative="1" as="geometry">
            <mxPoint x="60" y="140" as="sourcePoint" />
            <mxPoint x="120" y="170" as="targetPoint" />
            <Array as="points">
              <mxPoint x="70" y="150" />
              <mxPoint x="80" y="150" />
              <mxPoint x="80" y="160" />
              <mxPoint x="80" y="170" />
              <mxPoint x="80" y="180" />
              <mxPoint x="80" y="200" />
              <mxPoint x="70" y="200" />
            </Array>
          </mxGeometry>
        </mxCell>
        <mxCell id="2XLCShjKRxZ3LYoeDsnX-16" value="任务&lt;br&gt;推入时间轮" style="edgeLabel;html=1;align=center;verticalAlign=middle;resizable=0;points=[];" parent="2XLCShjKRxZ3LYoeDsnX-15" vertex="1" connectable="0">
          <mxGeometry x="-0.03" y="1" relative="1" as="geometry">
            <mxPoint x="9" as="offset" />
          </mxGeometry>
        </mxCell>
        <mxCell id="2XLCShjKRxZ3LYoeDsnX-2" value="数据库" style="shape=umlLifeline;perimeter=lifelinePerimeter;whiteSpace=wrap;html=1;container=1;dropTarget=0;collapsible=0;recursiveResize=0;outlineConnect=0;portConstraint=eastwest;newEdgeStyle={&quot;edgeStyle&quot;:&quot;elbowEdgeStyle&quot;,&quot;elbow&quot;:&quot;vertical&quot;,&quot;curved&quot;:0,&quot;rounded&quot;:0};" parent="1" vertex="1">
          <mxGeometry x="310" y="190" width="100" height="420" as="geometry" />
        </mxCell>
        <mxCell id="2XLCShjKRxZ3LYoeDsnX-5" value="" style="html=1;points=[[0,0,0,0,5],[0,1,0,0,-5],[1,0,0,0,5],[1,1,0,0,-5]];perimeter=orthogonalPerimeter;outlineConnect=0;targetShapes=umlLifeline;portConstraint=eastwest;newEdgeStyle={&quot;curved&quot;:0,&quot;rounded&quot;:0};" parent="2XLCShjKRxZ3LYoeDsnX-2" vertex="1">
          <mxGeometry x="45" y="60" width="10" height="40" as="geometry" />
        </mxCell>
        <mxCell id="2XLCShjKRxZ3LYoeDsnX-10" value="" style="html=1;points=[[0,0,0,0,5],[0,1,0,0,-5],[1,0,0,0,5],[1,1,0,0,-5]];perimeter=orthogonalPerimeter;outlineConnect=0;targetShapes=umlLifeline;portConstraint=eastwest;newEdgeStyle={&quot;curved&quot;:0,&quot;rounded&quot;:0};" parent="2XLCShjKRxZ3LYoeDsnX-2" vertex="1">
          <mxGeometry x="45" y="130" width="10" height="20" as="geometry" />
        </mxCell>
        <mxCell id="2XLCShjKRxZ3LYoeDsnX-21" value="" style="html=1;points=[[0,0,0,0,5],[0,1,0,0,-5],[1,0,0,0,5],[1,1,0,0,-5]];perimeter=orthogonalPerimeter;outlineConnect=0;targetShapes=umlLifeline;portConstraint=eastwest;newEdgeStyle={&quot;curved&quot;:0,&quot;rounded&quot;:0};" parent="2XLCShjKRxZ3LYoeDsnX-2" vertex="1">
          <mxGeometry x="45" y="280" width="10" height="20" as="geometry" />
        </mxCell>
        <mxCell id="2XLCShjKRxZ3LYoeDsnX-3" value="Worker" style="shape=umlLifeline;perimeter=lifelinePerimeter;whiteSpace=wrap;html=1;container=1;dropTarget=0;collapsible=0;recursiveResize=0;outlineConnect=0;portConstraint=eastwest;newEdgeStyle={&quot;edgeStyle&quot;:&quot;elbowEdgeStyle&quot;,&quot;elbow&quot;:&quot;vertical&quot;,&quot;curved&quot;:0,&quot;rounded&quot;:0};" parent="1" vertex="1">
          <mxGeometry x="450" y="190" width="100" height="420" as="geometry" />
        </mxCell>
        <mxCell id="2XLCShjKRxZ3LYoeDsnX-17" value="" style="html=1;points=[[0,0,0,0,5],[0,1,0,0,-5],[1,0,0,0,5],[1,1,0,0,-5]];perimeter=orthogonalPerimeter;outlineConnect=0;targetShapes=umlLifeline;portConstraint=eastwest;newEdgeStyle={&quot;curved&quot;:0,&quot;rounded&quot;:0};" parent="2XLCShjKRxZ3LYoeDsnX-3" vertex="1">
          <mxGeometry x="45" y="210" width="10" height="50" as="geometry" />
        </mxCell>
        <mxCell id="2XLCShjKRxZ3LYoeDsnX-6" value="" style="endArrow=open;endFill=1;endSize=12;html=1;rounded=0;" parent="1" target="2XLCShjKRxZ3LYoeDsnX-5" edge="1">
          <mxGeometry width="160" relative="1" as="geometry">
            <mxPoint x="190" y="250" as="sourcePoint" />
            <mxPoint x="320" y="250" as="targetPoint" />
          </mxGeometry>
        </mxCell>
        <mxCell id="2XLCShjKRxZ3LYoeDsnX-7" value="查询近期需要执行&lt;br&gt;任务" style="edgeLabel;html=1;align=center;verticalAlign=middle;resizable=0;points=[];" parent="2XLCShjKRxZ3LYoeDsnX-6" vertex="1" connectable="0">
          <mxGeometry x="-0.0074" y="-3" relative="1" as="geometry">
            <mxPoint as="offset" />
          </mxGeometry>
        </mxCell>
        <mxCell id="2XLCShjKRxZ3LYoeDsnX-9" value="根据分配的Slot返回&lt;br&gt;任务" style="endArrow=open;endSize=12;dashed=1;html=1;rounded=0;" parent="1" source="2XLCShjKRxZ3LYoeDsnX-5" target="2XLCShjKRxZ3LYoeDsnX-4" edge="1">
          <mxGeometry width="160" relative="1" as="geometry">
            <mxPoint x="350" y="290" as="sourcePoint" />
            <mxPoint x="200" y="290" as="targetPoint" />
            <Array as="points">
              <mxPoint x="240" y="290" />
            </Array>
          </mxGeometry>
        </mxCell>
        <mxCell id="2XLCShjKRxZ3LYoeDsnX-11" value="" style="endArrow=open;endFill=1;endSize=12;html=1;rounded=0;" parent="1" edge="1">
          <mxGeometry width="160" relative="1" as="geometry">
            <mxPoint x="195" y="320" as="sourcePoint" />
            <mxPoint x="355" y="320" as="targetPoint" />
          </mxGeometry>
        </mxCell>
        <mxCell id="2XLCShjKRxZ3LYoeDsnX-12" value="生成任务实例&lt;br&gt;写入数据库" style="edgeLabel;html=1;align=center;verticalAlign=middle;resizable=0;points=[];" parent="2XLCShjKRxZ3LYoeDsnX-11" vertex="1" connectable="0">
          <mxGeometry x="-0.0074" y="-3" relative="1" as="geometry">
            <mxPoint as="offset" />
          </mxGeometry>
        </mxCell>
        <mxCell id="2XLCShjKRxZ3LYoeDsnX-18" value="" style="endArrow=classic;html=1;rounded=0;" parent="1" source="2XLCShjKRxZ3LYoeDsnX-4" edge="1">
          <mxGeometry width="50" height="50" relative="1" as="geometry">
            <mxPoint x="197.75" y="400" as="sourcePoint" />
            <mxPoint x="495" y="400" as="targetPoint" />
            <Array as="points">
              <mxPoint x="322.75" y="400" />
            </Array>
          </mxGeometry>
        </mxCell>
        <mxCell id="2XLCShjKRxZ3LYoeDsnX-19" value="根据负载均衡策略&lt;br&gt;选择Worker节点执行" style="edgeLabel;html=1;align=center;verticalAlign=middle;resizable=0;points=[];" parent="2XLCShjKRxZ3LYoeDsnX-18" vertex="1" connectable="0">
          <mxGeometry x="-0.0448" y="-1" relative="1" as="geometry">
            <mxPoint as="offset" />
          </mxGeometry>
        </mxCell>
        <mxCell id="2XLCShjKRxZ3LYoeDsnX-20" value="返回任务执行情况" style="endArrow=open;endSize=12;dashed=1;html=1;rounded=0;" parent="1" source="2XLCShjKRxZ3LYoeDsnX-17" target="2XLCShjKRxZ3LYoeDsnX-4" edge="1">
          <mxGeometry width="160" relative="1" as="geometry">
            <mxPoint x="490" y="450" as="sourcePoint" />
            <mxPoint x="200" y="450" as="targetPoint" />
            <Array as="points">
              <mxPoint x="235" y="450" />
            </Array>
          </mxGeometry>
        </mxCell>
        <mxCell id="2XLCShjKRxZ3LYoeDsnX-22" value="" style="endArrow=open;endFill=1;endSize=12;html=1;rounded=0;" parent="1" source="2XLCShjKRxZ3LYoeDsnX-4" target="2XLCShjKRxZ3LYoeDsnX-21" edge="1">
          <mxGeometry width="160" relative="1" as="geometry">
            <mxPoint x="200" y="470" as="sourcePoint" />
            <mxPoint x="350" y="470" as="targetPoint" />
          </mxGeometry>
        </mxCell>
        <mxCell id="2XLCShjKRxZ3LYoeDsnX-23" value="写入任务实例&lt;br&gt;执行日志" style="edgeLabel;html=1;align=center;verticalAlign=middle;resizable=0;points=[];" parent="2XLCShjKRxZ3LYoeDsnX-22" vertex="1" connectable="0">
          <mxGeometry x="-0.0074" y="-3" relative="1" as="geometry">
            <mxPoint as="offset" />
          </mxGeometry>
        </mxCell>
        <mxCell id="kCsP4Bqx8Y0ZKy2_F3wo-1" value="User" style="shape=umlLifeline;perimeter=lifelinePerimeter;whiteSpace=wrap;html=1;container=1;dropTarget=0;collapsible=0;recursiveResize=0;outlineConnect=0;portConstraint=eastwest;newEdgeStyle={&quot;edgeStyle&quot;:&quot;elbowEdgeStyle&quot;,&quot;elbow&quot;:&quot;vertical&quot;,&quot;curved&quot;:0,&quot;rounded&quot;:0};" vertex="1" parent="1">
          <mxGeometry x="570" y="190" width="100" height="420" as="geometry" />
        </mxCell>
        <mxCell id="kCsP4Bqx8Y0ZKy2_F3wo-2" value="" style="html=1;points=[[0,0,0,0,5],[0,1,0,0,-5],[1,0,0,0,5],[1,1,0,0,-5]];perimeter=orthogonalPerimeter;outlineConnect=0;targetShapes=umlLifeline;portConstraint=eastwest;newEdgeStyle={&quot;curved&quot;:0,&quot;rounded&quot;:0};" vertex="1" parent="kCsP4Bqx8Y0ZKy2_F3wo-1">
          <mxGeometry x="45" y="330" width="10" height="20" as="geometry" />
        </mxCell>
        <mxCell id="kCsP4Bqx8Y0ZKy2_F3wo-10" value="" style="group" vertex="1" connectable="0" parent="1">
          <mxGeometry x="100" y="500" width="530" height="60" as="geometry" />
        </mxCell>
        <mxCell id="kCsP4Bqx8Y0ZKy2_F3wo-6" value="opt" style="shape=umlFrame;whiteSpace=wrap;html=1;pointerEvents=0;" vertex="1" parent="kCsP4Bqx8Y0ZKy2_F3wo-10">
          <mxGeometry width="530" height="60" as="geometry" />
        </mxCell>
        <mxCell id="kCsP4Bqx8Y0ZKy2_F3wo-9" value="[执行失败]" style="text;html=1;align=center;verticalAlign=middle;whiteSpace=wrap;rounded=0;" vertex="1" parent="kCsP4Bqx8Y0ZKy2_F3wo-10">
          <mxGeometry x="-20" y="25.71428571428571" width="117.77777777777779" height="25.71428571428571" as="geometry" />
        </mxCell>
        <mxCell id="kCsP4Bqx8Y0ZKy2_F3wo-4" value="" style="endArrow=classic;html=1;rounded=0;" edge="1" parent="kCsP4Bqx8Y0ZKy2_F3wo-10">
          <mxGeometry width="50" height="50" relative="1" as="geometry">
            <mxPoint x="95" y="20" as="sourcePoint" />
            <mxPoint x="515" y="20" as="targetPoint" />
            <Array as="points">
              <mxPoint x="232.75" y="20" />
            </Array>
          </mxGeometry>
        </mxCell>
        <mxCell id="kCsP4Bqx8Y0ZKy2_F3wo-5" value="发送告警" style="edgeLabel;html=1;align=center;verticalAlign=middle;resizable=0;points=[];" vertex="1" connectable="0" parent="kCsP4Bqx8Y0ZKy2_F3wo-4">
          <mxGeometry x="-0.0448" y="-1" relative="1" as="geometry">
            <mxPoint as="offset" />
          </mxGeometry>
        </mxCell>
      </root>
    </mxGraphModel>
  </diagram>
  <diagram id="hpaRS4v0fzeA8_wIFh0F" name="第 3 页">
    <mxGraphModel dx="1431" dy="683" grid="1" gridSize="10" guides="1" tooltips="1" connect="1" arrows="1" fold="1" page="1" pageScale="1" pageWidth="827" pageHeight="1169" math="0" shadow="0">
      <root>
        <mxCell id="0" />
        <mxCell id="1" parent="0" />
        <mxCell id="o_M1LemYqEoifcltKENi-17" value="" style="edgeStyle=orthogonalEdgeStyle;rounded=0;orthogonalLoop=1;jettySize=auto;html=1;" parent="1" source="o_M1LemYqEoifcltKENi-1" target="o_M1LemYqEoifcltKENi-4" edge="1">
          <mxGeometry relative="1" as="geometry" />
        </mxCell>
        <mxCell id="o_M1LemYqEoifcltKENi-1" value="" style="ellipse;fillColor=strokeColor;html=1;" parent="1" vertex="1">
          <mxGeometry x="210" y="180" width="30" height="30" as="geometry" />
        </mxCell>
        <mxCell id="o_M1LemYqEoifcltKENi-48" value="" style="edgeStyle=orthogonalEdgeStyle;rounded=0;orthogonalLoop=1;jettySize=auto;html=1;" parent="1" source="o_M1LemYqEoifcltKENi-4" target="o_M1LemYqEoifcltKENi-6" edge="1">
          <mxGeometry relative="1" as="geometry" />
        </mxCell>
        <mxCell id="o_M1LemYqEoifcltKENi-4" value="Worker&lt;br&gt;启动" style="html=1;align=center;verticalAlign=top;rounded=1;absoluteArcSize=1;arcSize=10;dashed=0;whiteSpace=wrap;" parent="1" vertex="1">
          <mxGeometry x="270" y="175" width="105" height="40" as="geometry" />
        </mxCell>
        <mxCell id="o_M1LemYqEoifcltKENi-49" value="" style="edgeStyle=orthogonalEdgeStyle;rounded=0;orthogonalLoop=1;jettySize=auto;html=1;" parent="1" source="o_M1LemYqEoifcltKENi-6" edge="1">
          <mxGeometry relative="1" as="geometry">
            <mxPoint x="570" y="195" as="targetPoint" />
          </mxGeometry>
        </mxCell>
        <mxCell id="o_M1LemYqEoifcltKENi-6" value="获取Scheduler地址列表节点" style="html=1;align=center;verticalAlign=top;rounded=1;absoluteArcSize=1;arcSize=10;dashed=0;whiteSpace=wrap;" parent="1" vertex="1">
          <mxGeometry x="400" y="175" width="140" height="40" as="geometry" />
        </mxCell>
        <mxCell id="o_M1LemYqEoifcltKENi-51" value="" style="edgeStyle=orthogonalEdgeStyle;rounded=0;orthogonalLoop=1;jettySize=auto;html=1;" parent="1" source="o_M1LemYqEoifcltKENi-7" target="o_M1LemYqEoifcltKENi-26" edge="1">
          <mxGeometry relative="1" as="geometry" />
        </mxCell>
        <mxCell id="o_M1LemYqEoifcltKENi-7" value="收到Scheduler&lt;br&gt;回复" style="html=1;align=center;verticalAlign=top;rounded=1;absoluteArcSize=1;arcSize=10;dashed=0;whiteSpace=wrap;" parent="1" vertex="1">
          <mxGeometry x="750" y="175" width="100" height="40" as="geometry" />
        </mxCell>
        <mxCell id="o_M1LemYqEoifcltKENi-53" value="" style="edgeStyle=orthogonalEdgeStyle;rounded=0;orthogonalLoop=1;jettySize=auto;html=1;" parent="1" source="o_M1LemYqEoifcltKENi-11" target="o_M1LemYqEoifcltKENi-40" edge="1">
          <mxGeometry relative="1" as="geometry" />
        </mxCell>
        <mxCell id="o_M1LemYqEoifcltKENi-11" value="定时向Scheduler节点发送心跳" style="html=1;align=center;verticalAlign=top;rounded=1;absoluteArcSize=1;arcSize=10;dashed=0;whiteSpace=wrap;" parent="1" vertex="1">
          <mxGeometry x="960" y="175" width="140" height="40" as="geometry" />
        </mxCell>
        <mxCell id="o_M1LemYqEoifcltKENi-52" value="" style="edgeStyle=orthogonalEdgeStyle;rounded=0;orthogonalLoop=1;jettySize=auto;html=1;" parent="1" source="o_M1LemYqEoifcltKENi-26" target="o_M1LemYqEoifcltKENi-11" edge="1">
          <mxGeometry relative="1" as="geometry" />
        </mxCell>
        <mxCell id="o_M1LemYqEoifcltKENi-54" value="是" style="edgeLabel;html=1;align=center;verticalAlign=middle;resizable=0;points=[];" parent="o_M1LemYqEoifcltKENi-52" vertex="1" connectable="0">
          <mxGeometry x="-0.25" y="-1" relative="1" as="geometry">
            <mxPoint as="offset" />
          </mxGeometry>
        </mxCell>
        <mxCell id="o_M1LemYqEoifcltKENi-56" value="" style="edgeStyle=orthogonalEdgeStyle;rounded=0;orthogonalLoop=1;jettySize=auto;html=1;entryX=0.5;entryY=0;entryDx=0;entryDy=0;exitX=0;exitY=0.5;exitDx=0;exitDy=0;" parent="1" source="NWqPg8FJx0dHXi5zBHxI-16" target="NWqPg8FJx0dHXi5zBHxI-1" edge="1">
          <mxGeometry relative="1" as="geometry">
            <mxPoint x="630" y="160" as="targetPoint" />
            <Array as="points">
              <mxPoint x="635" y="120" />
            </Array>
            <mxPoint x="780" y="120" as="sourcePoint" />
          </mxGeometry>
        </mxCell>
        <mxCell id="o_M1LemYqEoifcltKENi-58" value="向其他节点继续轮询" style="edgeLabel;html=1;align=center;verticalAlign=middle;resizable=0;points=[];" parent="o_M1LemYqEoifcltKENi-56" vertex="1" connectable="0">
          <mxGeometry x="-0.0023" relative="1" as="geometry">
            <mxPoint as="offset" />
          </mxGeometry>
        </mxCell>
        <mxCell id="NWqPg8FJx0dHXi5zBHxI-13" value="" style="edgeStyle=orthogonalEdgeStyle;rounded=0;orthogonalLoop=1;jettySize=auto;html=1;" edge="1" parent="1" source="o_M1LemYqEoifcltKENi-26" target="NWqPg8FJx0dHXi5zBHxI-3">
          <mxGeometry relative="1" as="geometry" />
        </mxCell>
        <mxCell id="NWqPg8FJx0dHXi5zBHxI-21" value="否" style="edgeLabel;html=1;align=center;verticalAlign=middle;resizable=0;points=[];" vertex="1" connectable="0" parent="NWqPg8FJx0dHXi5zBHxI-13">
          <mxGeometry x="-0.3" y="-2" relative="1" as="geometry">
            <mxPoint as="offset" />
          </mxGeometry>
        </mxCell>
        <mxCell id="o_M1LemYqEoifcltKENi-26" value="" style="rhombus;" parent="1" vertex="1">
          <mxGeometry x="890" y="180" width="30" height="30" as="geometry" />
        </mxCell>
        <mxCell id="o_M1LemYqEoifcltKENi-40" value="" style="ellipse;html=1;shape=endState;fillColor=strokeColor;" parent="1" vertex="1">
          <mxGeometry x="1150" y="180" width="30" height="30" as="geometry" />
        </mxCell>
        <mxCell id="NWqPg8FJx0dHXi5zBHxI-15" value="" style="edgeStyle=orthogonalEdgeStyle;rounded=0;orthogonalLoop=1;jettySize=auto;html=1;" edge="1" parent="1" source="NWqPg8FJx0dHXi5zBHxI-1" target="o_M1LemYqEoifcltKENi-7">
          <mxGeometry relative="1" as="geometry" />
        </mxCell>
        <mxCell id="NWqPg8FJx0dHXi5zBHxI-1" value="选择Scheduler地址列表中的节点发送请求" style="html=1;align=center;verticalAlign=top;rounded=1;absoluteArcSize=1;arcSize=10;dashed=0;whiteSpace=wrap;" vertex="1" parent="1">
          <mxGeometry x="570" y="175" width="130" height="40" as="geometry" />
        </mxCell>
        <mxCell id="NWqPg8FJx0dHXi5zBHxI-17" value="" style="edgeStyle=orthogonalEdgeStyle;rounded=0;orthogonalLoop=1;jettySize=auto;html=1;" edge="1" parent="1" source="NWqPg8FJx0dHXi5zBHxI-3" target="NWqPg8FJx0dHXi5zBHxI-16">
          <mxGeometry relative="1" as="geometry" />
        </mxCell>
        <mxCell id="NWqPg8FJx0dHXi5zBHxI-3" value="是否已经向所有节点请求" style="html=1;align=center;verticalAlign=top;rounded=1;absoluteArcSize=1;arcSize=10;dashed=0;whiteSpace=wrap;" vertex="1" parent="1">
          <mxGeometry x="855" y="100" width="100" height="40" as="geometry" />
        </mxCell>
        <mxCell id="NWqPg8FJx0dHXi5zBHxI-18" value="" style="edgeStyle=orthogonalEdgeStyle;rounded=0;orthogonalLoop=1;jettySize=auto;html=1;" edge="1" parent="1" source="NWqPg8FJx0dHXi5zBHxI-14" target="o_M1LemYqEoifcltKENi-40">
          <mxGeometry relative="1" as="geometry" />
        </mxCell>
        <mxCell id="NWqPg8FJx0dHXi5zBHxI-14" value="注册失败" style="html=1;align=center;verticalAlign=top;rounded=1;absoluteArcSize=1;arcSize=10;dashed=0;whiteSpace=wrap;" vertex="1" parent="1">
          <mxGeometry x="1020" y="100" width="100" height="40" as="geometry" />
        </mxCell>
        <mxCell id="NWqPg8FJx0dHXi5zBHxI-19" value="" style="edgeStyle=orthogonalEdgeStyle;rounded=0;orthogonalLoop=1;jettySize=auto;html=1;" edge="1" parent="1" source="NWqPg8FJx0dHXi5zBHxI-16" target="NWqPg8FJx0dHXi5zBHxI-14">
          <mxGeometry relative="1" as="geometry">
            <Array as="points">
              <mxPoint x="800" y="70" />
              <mxPoint x="1070" y="70" />
            </Array>
          </mxGeometry>
        </mxCell>
        <mxCell id="NWqPg8FJx0dHXi5zBHxI-20" value="是" style="edgeLabel;html=1;align=center;verticalAlign=middle;resizable=0;points=[];" vertex="1" connectable="0" parent="NWqPg8FJx0dHXi5zBHxI-19">
          <mxGeometry x="-0.003" y="2" relative="1" as="geometry">
            <mxPoint as="offset" />
          </mxGeometry>
        </mxCell>
        <mxCell id="NWqPg8FJx0dHXi5zBHxI-16" value="" style="rhombus;" vertex="1" parent="1">
          <mxGeometry x="785" y="105" width="30" height="30" as="geometry" />
        </mxCell>
      </root>
    </mxGraphModel>
  </diagram>
  <diagram id="CdD6j9BZuZVUaMJugdns" name="第 4 页">
    <mxGraphModel dx="1431" dy="683" grid="1" gridSize="10" guides="1" tooltips="1" connect="1" arrows="1" fold="1" page="1" pageScale="1" pageWidth="827" pageHeight="1169" math="0" shadow="0">
      <root>
        <mxCell id="0" />
        <mxCell id="1" parent="0" />
        <mxCell id="bmDrM3p5Xvc4IJoVwiAL-25" value="" style="edgeStyle=orthogonalEdgeStyle;rounded=0;orthogonalLoop=1;jettySize=auto;html=1;" edge="1" parent="1" source="bmDrM3p5Xvc4IJoVwiAL-1" target="bmDrM3p5Xvc4IJoVwiAL-2">
          <mxGeometry relative="1" as="geometry" />
        </mxCell>
        <mxCell id="bmDrM3p5Xvc4IJoVwiAL-1" value="" style="ellipse;fillColor=strokeColor;html=1;" vertex="1" parent="1">
          <mxGeometry x="222.5" y="70" width="30" height="30" as="geometry" />
        </mxCell>
        <mxCell id="bmDrM3p5Xvc4IJoVwiAL-26" value="" style="edgeStyle=orthogonalEdgeStyle;rounded=0;orthogonalLoop=1;jettySize=auto;html=1;" edge="1" parent="1" source="bmDrM3p5Xvc4IJoVwiAL-2" target="bmDrM3p5Xvc4IJoVwiAL-5">
          <mxGeometry relative="1" as="geometry" />
        </mxCell>
        <mxCell id="bmDrM3p5Xvc4IJoVwiAL-2" value="捕获到节点下线事件" style="html=1;align=center;verticalAlign=top;rounded=1;absoluteArcSize=1;arcSize=10;dashed=0;whiteSpace=wrap;" vertex="1" parent="1">
          <mxGeometry x="167.5" y="130" width="140" height="40" as="geometry" />
        </mxCell>
        <mxCell id="bmDrM3p5Xvc4IJoVwiAL-20" value="" style="edgeStyle=orthogonalEdgeStyle;rounded=0;orthogonalLoop=1;jettySize=auto;html=1;" edge="1" parent="1" source="bmDrM3p5Xvc4IJoVwiAL-3" target="bmDrM3p5Xvc4IJoVwiAL-4">
          <mxGeometry relative="1" as="geometry" />
        </mxCell>
        <mxCell id="bmDrM3p5Xvc4IJoVwiAL-3" value="更新内存中集群节点信息" style="html=1;align=center;verticalAlign=top;rounded=1;absoluteArcSize=1;arcSize=10;dashed=0;whiteSpace=wrap;" vertex="1" parent="1">
          <mxGeometry x="165" y="350" width="145" height="40" as="geometry" />
        </mxCell>
        <mxCell id="bmDrM3p5Xvc4IJoVwiAL-21" value="" style="edgeStyle=orthogonalEdgeStyle;rounded=0;orthogonalLoop=1;jettySize=auto;html=1;" edge="1" parent="1" source="bmDrM3p5Xvc4IJoVwiAL-4" target="bmDrM3p5Xvc4IJoVwiAL-16">
          <mxGeometry relative="1" as="geometry" />
        </mxCell>
        <mxCell id="bmDrM3p5Xvc4IJoVwiAL-4" value="更新内存中Slot信息" style="html=1;align=center;verticalAlign=top;rounded=1;absoluteArcSize=1;arcSize=10;dashed=0;whiteSpace=wrap;" vertex="1" parent="1">
          <mxGeometry x="167.5" y="410" width="140" height="40" as="geometry" />
        </mxCell>
        <mxCell id="bmDrM3p5Xvc4IJoVwiAL-8" value="" style="edgeStyle=orthogonalEdgeStyle;rounded=0;orthogonalLoop=1;jettySize=auto;html=1;" edge="1" parent="1" source="bmDrM3p5Xvc4IJoVwiAL-5" target="bmDrM3p5Xvc4IJoVwiAL-6">
          <mxGeometry relative="1" as="geometry" />
        </mxCell>
        <mxCell id="bmDrM3p5Xvc4IJoVwiAL-27" value="" style="edgeStyle=orthogonalEdgeStyle;rounded=0;orthogonalLoop=1;jettySize=auto;html=1;" edge="1" parent="1" source="bmDrM3p5Xvc4IJoVwiAL-5" target="bmDrM3p5Xvc4IJoVwiAL-6">
          <mxGeometry relative="1" as="geometry" />
        </mxCell>
        <mxCell id="bmDrM3p5Xvc4IJoVwiAL-5" value="获取当前节点的活跃状态、集群版本号，判断是否处理该事件" style="html=1;align=center;verticalAlign=top;rounded=1;absoluteArcSize=1;arcSize=10;dashed=0;whiteSpace=wrap;" vertex="1" parent="1">
          <mxGeometry x="165" y="200" width="145" height="50" as="geometry" />
        </mxCell>
        <mxCell id="bmDrM3p5Xvc4IJoVwiAL-10" value="" style="edgeStyle=orthogonalEdgeStyle;rounded=0;orthogonalLoop=1;jettySize=auto;html=1;" edge="1" parent="1" source="bmDrM3p5Xvc4IJoVwiAL-6" target="bmDrM3p5Xvc4IJoVwiAL-7">
          <mxGeometry relative="1" as="geometry" />
        </mxCell>
        <mxCell id="bmDrM3p5Xvc4IJoVwiAL-11" value="不处理" style="edgeLabel;html=1;align=center;verticalAlign=middle;resizable=0;points=[];" vertex="1" connectable="0" parent="bmDrM3p5Xvc4IJoVwiAL-10">
          <mxGeometry x="-0.2129" y="-2" relative="1" as="geometry">
            <mxPoint as="offset" />
          </mxGeometry>
        </mxCell>
        <mxCell id="bmDrM3p5Xvc4IJoVwiAL-12" value="" style="edgeStyle=orthogonalEdgeStyle;rounded=0;orthogonalLoop=1;jettySize=auto;html=1;" edge="1" parent="1" source="bmDrM3p5Xvc4IJoVwiAL-6" target="bmDrM3p5Xvc4IJoVwiAL-3">
          <mxGeometry relative="1" as="geometry" />
        </mxCell>
        <mxCell id="bmDrM3p5Xvc4IJoVwiAL-13" value="处理" style="edgeLabel;html=1;align=center;verticalAlign=middle;resizable=0;points=[];" vertex="1" connectable="0" parent="bmDrM3p5Xvc4IJoVwiAL-12">
          <mxGeometry x="-0.25" y="-2" relative="1" as="geometry">
            <mxPoint as="offset" />
          </mxGeometry>
        </mxCell>
        <mxCell id="bmDrM3p5Xvc4IJoVwiAL-6" value="" style="rhombus;" vertex="1" parent="1">
          <mxGeometry x="222.5" y="280" width="30" height="30" as="geometry" />
        </mxCell>
        <mxCell id="bmDrM3p5Xvc4IJoVwiAL-15" value="" style="edgeStyle=orthogonalEdgeStyle;rounded=0;orthogonalLoop=1;jettySize=auto;html=1;" edge="1" parent="1" source="bmDrM3p5Xvc4IJoVwiAL-7" target="bmDrM3p5Xvc4IJoVwiAL-14">
          <mxGeometry relative="1" as="geometry" />
        </mxCell>
        <mxCell id="bmDrM3p5Xvc4IJoVwiAL-7" value="忽略该事件" style="html=1;align=center;verticalAlign=top;rounded=1;absoluteArcSize=1;arcSize=10;dashed=0;whiteSpace=wrap;" vertex="1" parent="1">
          <mxGeometry x="330" y="275" width="140" height="40" as="geometry" />
        </mxCell>
        <mxCell id="bmDrM3p5Xvc4IJoVwiAL-14" value="" style="ellipse;html=1;shape=endState;fillColor=strokeColor;" vertex="1" parent="1">
          <mxGeometry x="500" y="280" width="30" height="30" as="geometry" />
        </mxCell>
        <mxCell id="bmDrM3p5Xvc4IJoVwiAL-22" value="" style="edgeStyle=orthogonalEdgeStyle;rounded=0;orthogonalLoop=1;jettySize=auto;html=1;" edge="1" parent="1" source="bmDrM3p5Xvc4IJoVwiAL-16" target="bmDrM3p5Xvc4IJoVwiAL-17">
          <mxGeometry relative="1" as="geometry" />
        </mxCell>
        <mxCell id="bmDrM3p5Xvc4IJoVwiAL-16" value="更新系统信息" style="html=1;align=center;verticalAlign=top;rounded=1;absoluteArcSize=1;arcSize=10;dashed=0;whiteSpace=wrap;" vertex="1" parent="1">
          <mxGeometry x="167.5" y="470" width="140" height="40" as="geometry" />
        </mxCell>
        <mxCell id="bmDrM3p5Xvc4IJoVwiAL-23" value="" style="edgeStyle=orthogonalEdgeStyle;rounded=0;orthogonalLoop=1;jettySize=auto;html=1;" edge="1" parent="1" source="bmDrM3p5Xvc4IJoVwiAL-17" target="bmDrM3p5Xvc4IJoVwiAL-18">
          <mxGeometry relative="1" as="geometry" />
        </mxCell>
        <mxCell id="bmDrM3p5Xvc4IJoVwiAL-17" value="转发节点下线事件" style="html=1;align=center;verticalAlign=top;rounded=1;absoluteArcSize=1;arcSize=10;dashed=0;whiteSpace=wrap;" vertex="1" parent="1">
          <mxGeometry x="167.5" y="530" width="140" height="40" as="geometry" />
        </mxCell>
        <mxCell id="bmDrM3p5Xvc4IJoVwiAL-18" value="" style="ellipse;html=1;shape=endState;fillColor=strokeColor;" vertex="1" parent="1">
          <mxGeometry x="222.5" y="590" width="30" height="30" as="geometry" />
        </mxCell>
      </root>
    </mxGraphModel>
  </diagram>
  <diagram id="ZTUNvpwWnr99FZB3h0_2" name="第 5 页">
    <mxGraphModel dx="2033" dy="649" grid="1" gridSize="10" guides="1" tooltips="1" connect="1" arrows="1" fold="1" page="1" pageScale="1" pageWidth="827" pageHeight="1169" math="0" shadow="0">
      <root>
        <mxCell id="0" />
        <mxCell id="1" parent="0" />
        <mxCell id="rdNAZZPTmjT5-HZl1iVB-9" value="" style="edgeStyle=orthogonalEdgeStyle;rounded=0;orthogonalLoop=1;jettySize=auto;html=1;endArrow=none;endFill=0;" parent="1" source="P6R_FaIMyyUO1ws6MqQ8-1" target="rdNAZZPTmjT5-HZl1iVB-8" edge="1">
          <mxGeometry relative="1" as="geometry" />
        </mxCell>
        <mxCell id="rdNAZZPTmjT5-HZl1iVB-30" value="1" style="edgeLabel;html=1;align=center;verticalAlign=middle;resizable=0;points=[];" parent="rdNAZZPTmjT5-HZl1iVB-9" vertex="1" connectable="0">
          <mxGeometry x="-0.16" y="1" relative="1" as="geometry">
            <mxPoint as="offset" />
          </mxGeometry>
        </mxCell>
        <mxCell id="rdNAZZPTmjT5-HZl1iVB-15" value="" style="edgeStyle=orthogonalEdgeStyle;rounded=0;orthogonalLoop=1;jettySize=auto;html=1;endArrow=none;endFill=0;" parent="1" source="P6R_FaIMyyUO1ws6MqQ8-1" target="rdNAZZPTmjT5-HZl1iVB-14" edge="1">
          <mxGeometry relative="1" as="geometry" />
        </mxCell>
        <mxCell id="rdNAZZPTmjT5-HZl1iVB-28" value="1" style="edgeLabel;html=1;align=center;verticalAlign=middle;resizable=0;points=[];" parent="rdNAZZPTmjT5-HZl1iVB-15" vertex="1" connectable="0">
          <mxGeometry x="-0.025" y="-2" relative="1" as="geometry">
            <mxPoint as="offset" />
          </mxGeometry>
        </mxCell>
        <mxCell id="P6R_FaIMyyUO1ws6MqQ8-1" value="app" style="rounded=0;whiteSpace=wrap;html=1;" parent="1" vertex="1">
          <mxGeometry x="350" y="140" width="120" height="60" as="geometry" />
        </mxCell>
        <mxCell id="rdNAZZPTmjT5-HZl1iVB-5" value="" style="rounded=0;orthogonalLoop=1;jettySize=auto;html=1;endArrow=none;endFill=0;" parent="1" source="P6R_FaIMyyUO1ws6MqQ8-2" target="rdNAZZPTmjT5-HZl1iVB-4" edge="1">
          <mxGeometry relative="1" as="geometry" />
        </mxCell>
        <mxCell id="rdNAZZPTmjT5-HZl1iVB-26" value="1" style="edgeLabel;html=1;align=center;verticalAlign=middle;resizable=0;points=[];" parent="rdNAZZPTmjT5-HZl1iVB-5" vertex="1" connectable="0">
          <mxGeometry x="0.3" y="1" relative="1" as="geometry">
            <mxPoint as="offset" />
          </mxGeometry>
        </mxCell>
        <mxCell id="P6R_FaIMyyUO1ws6MqQ8-2" value="namespace" style="rounded=0;whiteSpace=wrap;html=1;" parent="1" vertex="1">
          <mxGeometry x="60" y="140" width="120" height="60" as="geometry" />
        </mxCell>
        <mxCell id="rdNAZZPTmjT5-HZl1iVB-12" value="" style="edgeStyle=orthogonalEdgeStyle;rounded=0;orthogonalLoop=1;jettySize=auto;html=1;endArrow=none;endFill=0;" parent="1" source="P6R_FaIMyyUO1ws6MqQ8-3" target="rdNAZZPTmjT5-HZl1iVB-11" edge="1">
          <mxGeometry relative="1" as="geometry">
            <Array as="points">
              <mxPoint x="330" y="370" />
              <mxPoint x="330" y="370" />
            </Array>
          </mxGeometry>
        </mxCell>
        <mxCell id="rdNAZZPTmjT5-HZl1iVB-33" value="N" style="edgeLabel;html=1;align=center;verticalAlign=middle;resizable=0;points=[];" parent="rdNAZZPTmjT5-HZl1iVB-12" vertex="1" connectable="0">
          <mxGeometry x="0.025" y="4" relative="1" as="geometry">
            <mxPoint x="1" y="-4" as="offset" />
          </mxGeometry>
        </mxCell>
        <mxCell id="rdNAZZPTmjT5-HZl1iVB-21" value="" style="edgeStyle=orthogonalEdgeStyle;rounded=0;orthogonalLoop=1;jettySize=auto;html=1;endArrow=none;endFill=0;" parent="1" source="P6R_FaIMyyUO1ws6MqQ8-3" target="rdNAZZPTmjT5-HZl1iVB-20" edge="1">
          <mxGeometry relative="1" as="geometry" />
        </mxCell>
        <mxCell id="rdNAZZPTmjT5-HZl1iVB-34" value="1" style="edgeLabel;html=1;align=center;verticalAlign=middle;resizable=0;points=[];" parent="rdNAZZPTmjT5-HZl1iVB-21" vertex="1" connectable="0">
          <mxGeometry x="0.44" y="3" relative="1" as="geometry">
            <mxPoint as="offset" />
          </mxGeometry>
        </mxCell>
        <mxCell id="P6R_FaIMyyUO1ws6MqQ8-3" value="Job" style="rounded=0;whiteSpace=wrap;html=1;" parent="1" vertex="1">
          <mxGeometry x="350" y="340" width="120" height="60" as="geometry" />
        </mxCell>
        <mxCell id="rdNAZZPTmjT5-HZl1iVB-24" value="" style="edgeStyle=orthogonalEdgeStyle;rounded=0;orthogonalLoop=1;jettySize=auto;html=1;endArrow=none;endFill=0;" parent="1" source="P6R_FaIMyyUO1ws6MqQ8-6" target="rdNAZZPTmjT5-HZl1iVB-23" edge="1">
          <mxGeometry relative="1" as="geometry" />
        </mxCell>
        <mxCell id="rdNAZZPTmjT5-HZl1iVB-36" value="1" style="edgeLabel;html=1;align=center;verticalAlign=middle;resizable=0;points=[];" parent="rdNAZZPTmjT5-HZl1iVB-24" vertex="1" connectable="0">
          <mxGeometry x="0.14" y="-3" relative="1" as="geometry">
            <mxPoint as="offset" />
          </mxGeometry>
        </mxCell>
        <mxCell id="P6R_FaIMyyUO1ws6MqQ8-6" value="Job_instance" style="rounded=0;whiteSpace=wrap;html=1;" parent="1" vertex="1">
          <mxGeometry x="350" y="510" width="120" height="60" as="geometry" />
        </mxCell>
        <mxCell id="rdNAZZPTmjT5-HZl1iVB-13" value="" style="edgeStyle=orthogonalEdgeStyle;rounded=0;orthogonalLoop=1;jettySize=auto;html=1;endArrow=none;endFill=0;" parent="1" source="P6R_FaIMyyUO1ws6MqQ8-7" target="rdNAZZPTmjT5-HZl1iVB-11" edge="1">
          <mxGeometry relative="1" as="geometry" />
        </mxCell>
        <mxCell id="rdNAZZPTmjT5-HZl1iVB-32" value="1" style="edgeLabel;html=1;align=center;verticalAlign=middle;resizable=0;points=[];" parent="rdNAZZPTmjT5-HZl1iVB-13" vertex="1" connectable="0">
          <mxGeometry x="0.075" y="1" relative="1" as="geometry">
            <mxPoint as="offset" />
          </mxGeometry>
        </mxCell>
        <mxCell id="rdNAZZPTmjT5-HZl1iVB-18" value="" style="edgeStyle=orthogonalEdgeStyle;rounded=0;orthogonalLoop=1;jettySize=auto;html=1;endArrow=none;endFill=0;" parent="1" source="P6R_FaIMyyUO1ws6MqQ8-7" target="rdNAZZPTmjT5-HZl1iVB-17" edge="1">
          <mxGeometry relative="1" as="geometry" />
        </mxCell>
        <mxCell id="rdNAZZPTmjT5-HZl1iVB-38" value="N" style="edgeLabel;html=1;align=center;verticalAlign=middle;resizable=0;points=[];" parent="rdNAZZPTmjT5-HZl1iVB-18" vertex="1" connectable="0">
          <mxGeometry x="0.52" y="1" relative="1" as="geometry">
            <mxPoint as="offset" />
          </mxGeometry>
        </mxCell>
        <mxCell id="P6R_FaIMyyUO1ws6MqQ8-7" value="Job_slots" style="rounded=0;whiteSpace=wrap;html=1;" parent="1" vertex="1">
          <mxGeometry x="70" y="340" width="120" height="60" as="geometry" />
        </mxCell>
        <mxCell id="rdNAZZPTmjT5-HZl1iVB-1" value="Job_instance_log" style="rounded=0;whiteSpace=wrap;html=1;" parent="1" vertex="1">
          <mxGeometry x="640" y="510" width="120" height="60" as="geometry" />
        </mxCell>
        <mxCell id="rdNAZZPTmjT5-HZl1iVB-16" value="" style="edgeStyle=orthogonalEdgeStyle;rounded=0;orthogonalLoop=1;jettySize=auto;html=1;endArrow=none;endFill=0;" parent="1" source="rdNAZZPTmjT5-HZl1iVB-2" target="rdNAZZPTmjT5-HZl1iVB-14" edge="1">
          <mxGeometry relative="1" as="geometry" />
        </mxCell>
        <mxCell id="rdNAZZPTmjT5-HZl1iVB-29" value="N" style="edgeLabel;html=1;align=center;verticalAlign=middle;resizable=0;points=[];" parent="rdNAZZPTmjT5-HZl1iVB-16" vertex="1" connectable="0">
          <mxGeometry x="-0.025" relative="1" as="geometry">
            <mxPoint x="1" as="offset" />
          </mxGeometry>
        </mxCell>
        <mxCell id="rdNAZZPTmjT5-HZl1iVB-2" value="worker" style="rounded=0;whiteSpace=wrap;html=1;" parent="1" vertex="1">
          <mxGeometry x="630" y="140" width="120" height="60" as="geometry" />
        </mxCell>
        <mxCell id="rdNAZZPTmjT5-HZl1iVB-3" value="server" style="rounded=0;whiteSpace=wrap;html=1;" parent="1" vertex="1">
          <mxGeometry x="70" y="510" width="120" height="60" as="geometry" />
        </mxCell>
        <mxCell id="rdNAZZPTmjT5-HZl1iVB-6" value="" style="edgeStyle=orthogonalEdgeStyle;rounded=0;orthogonalLoop=1;jettySize=auto;html=1;endArrow=none;endFill=0;" parent="1" source="rdNAZZPTmjT5-HZl1iVB-4" target="P6R_FaIMyyUO1ws6MqQ8-1" edge="1">
          <mxGeometry relative="1" as="geometry" />
        </mxCell>
        <mxCell id="rdNAZZPTmjT5-HZl1iVB-27" value="N" style="edgeLabel;html=1;align=center;verticalAlign=middle;resizable=0;points=[];" parent="rdNAZZPTmjT5-HZl1iVB-6" vertex="1" connectable="0">
          <mxGeometry x="-0.025" y="-1" relative="1" as="geometry">
            <mxPoint as="offset" />
          </mxGeometry>
        </mxCell>
        <mxCell id="rdNAZZPTmjT5-HZl1iVB-4" value="所属" style="rhombus;whiteSpace=wrap;html=1;" parent="1" vertex="1">
          <mxGeometry x="230" y="145" width="80" height="50" as="geometry" />
        </mxCell>
        <mxCell id="rdNAZZPTmjT5-HZl1iVB-10" value="" style="edgeStyle=orthogonalEdgeStyle;rounded=0;orthogonalLoop=1;jettySize=auto;html=1;endArrow=none;endFill=0;" parent="1" source="rdNAZZPTmjT5-HZl1iVB-8" target="P6R_FaIMyyUO1ws6MqQ8-3" edge="1">
          <mxGeometry relative="1" as="geometry" />
        </mxCell>
        <mxCell id="rdNAZZPTmjT5-HZl1iVB-31" value="N" style="edgeLabel;html=1;align=center;verticalAlign=middle;resizable=0;points=[];" parent="rdNAZZPTmjT5-HZl1iVB-10" vertex="1" connectable="0">
          <mxGeometry y="5" relative="1" as="geometry">
            <mxPoint x="-5" as="offset" />
          </mxGeometry>
        </mxCell>
        <mxCell id="rdNAZZPTmjT5-HZl1iVB-8" value="所属" style="rhombus;whiteSpace=wrap;html=1;" parent="1" vertex="1">
          <mxGeometry x="370" y="250" width="80" height="50" as="geometry" />
        </mxCell>
        <mxCell id="rdNAZZPTmjT5-HZl1iVB-11" value="所属" style="rhombus;whiteSpace=wrap;html=1;" parent="1" vertex="1">
          <mxGeometry x="230" y="345" width="80" height="50" as="geometry" />
        </mxCell>
        <mxCell id="rdNAZZPTmjT5-HZl1iVB-14" value="所属" style="rhombus;whiteSpace=wrap;html=1;" parent="1" vertex="1">
          <mxGeometry x="510" y="145" width="80" height="50" as="geometry" />
        </mxCell>
        <mxCell id="rdNAZZPTmjT5-HZl1iVB-19" value="" style="edgeStyle=orthogonalEdgeStyle;rounded=0;orthogonalLoop=1;jettySize=auto;html=1;endArrow=none;endFill=0;" parent="1" source="rdNAZZPTmjT5-HZl1iVB-17" target="rdNAZZPTmjT5-HZl1iVB-3" edge="1">
          <mxGeometry relative="1" as="geometry" />
        </mxCell>
        <mxCell id="rdNAZZPTmjT5-HZl1iVB-39" value="1" style="edgeLabel;html=1;align=center;verticalAlign=middle;resizable=0;points=[];" parent="rdNAZZPTmjT5-HZl1iVB-19" vertex="1" connectable="0">
          <mxGeometry x="0.44" relative="1" as="geometry">
            <mxPoint as="offset" />
          </mxGeometry>
        </mxCell>
        <mxCell id="rdNAZZPTmjT5-HZl1iVB-17" value="分配" style="rhombus;whiteSpace=wrap;html=1;" parent="1" vertex="1">
          <mxGeometry x="90" y="430" width="80" height="50" as="geometry" />
        </mxCell>
        <mxCell id="rdNAZZPTmjT5-HZl1iVB-22" value="" style="edgeStyle=orthogonalEdgeStyle;rounded=0;orthogonalLoop=1;jettySize=auto;html=1;endArrow=none;endFill=0;" parent="1" source="rdNAZZPTmjT5-HZl1iVB-20" target="P6R_FaIMyyUO1ws6MqQ8-6" edge="1">
          <mxGeometry relative="1" as="geometry" />
        </mxCell>
        <mxCell id="rdNAZZPTmjT5-HZl1iVB-35" value="N" style="edgeLabel;html=1;align=center;verticalAlign=middle;resizable=0;points=[];" parent="rdNAZZPTmjT5-HZl1iVB-22" vertex="1" connectable="0">
          <mxGeometry x="0.32" y="-1" relative="1" as="geometry">
            <mxPoint as="offset" />
          </mxGeometry>
        </mxCell>
        <mxCell id="rdNAZZPTmjT5-HZl1iVB-20" value="创建" style="rhombus;whiteSpace=wrap;html=1;" parent="1" vertex="1">
          <mxGeometry x="370" y="430" width="80" height="50" as="geometry" />
        </mxCell>
        <mxCell id="rdNAZZPTmjT5-HZl1iVB-25" value="" style="edgeStyle=orthogonalEdgeStyle;rounded=0;orthogonalLoop=1;jettySize=auto;html=1;endArrow=none;endFill=0;" parent="1" source="rdNAZZPTmjT5-HZl1iVB-23" target="rdNAZZPTmjT5-HZl1iVB-1" edge="1">
          <mxGeometry relative="1" as="geometry" />
        </mxCell>
        <mxCell id="rdNAZZPTmjT5-HZl1iVB-37" value="1" style="edgeLabel;html=1;align=center;verticalAlign=middle;resizable=0;points=[];" parent="rdNAZZPTmjT5-HZl1iVB-25" vertex="1" connectable="0">
          <mxGeometry x="-0.175" y="-2" relative="1" as="geometry">
            <mxPoint as="offset" />
          </mxGeometry>
        </mxCell>
        <mxCell id="rdNAZZPTmjT5-HZl1iVB-23" value="对应" style="rhombus;whiteSpace=wrap;html=1;" parent="1" vertex="1">
          <mxGeometry x="520" y="515" width="80" height="50" as="geometry" />
        </mxCell>
        <mxCell id="y3_0HeaWk818Rc3R_v4Z-2" value="" style="rounded=0;orthogonalLoop=1;jettySize=auto;html=1;endArrow=none;endFill=0;entryX=0;entryY=0.25;entryDx=0;entryDy=0;" parent="1" source="y3_0HeaWk818Rc3R_v4Z-1" target="P6R_FaIMyyUO1ws6MqQ8-2" edge="1">
          <mxGeometry relative="1" as="geometry" />
        </mxCell>
        <mxCell id="y3_0HeaWk818Rc3R_v4Z-1" value="name" style="ellipse;whiteSpace=wrap;html=1;" parent="1" vertex="1">
          <mxGeometry x="-40" y="90" width="80" height="40" as="geometry" />
        </mxCell>
        <mxCell id="y3_0HeaWk818Rc3R_v4Z-4" value="" style="rounded=0;orthogonalLoop=1;jettySize=auto;html=1;endArrow=none;endFill=0;" parent="1" source="y3_0HeaWk818Rc3R_v4Z-3" target="P6R_FaIMyyUO1ws6MqQ8-2" edge="1">
          <mxGeometry relative="1" as="geometry" />
        </mxCell>
        <mxCell id="y3_0HeaWk818Rc3R_v4Z-3" value="uuid" style="ellipse;whiteSpace=wrap;html=1;" parent="1" vertex="1">
          <mxGeometry x="70" y="50" width="80" height="40" as="geometry" />
        </mxCell>
        <mxCell id="y3_0HeaWk818Rc3R_v4Z-6" value="" style="rounded=0;orthogonalLoop=1;jettySize=auto;html=1;endArrow=none;endFill=0;" parent="1" source="y3_0HeaWk818Rc3R_v4Z-5" target="P6R_FaIMyyUO1ws6MqQ8-2" edge="1">
          <mxGeometry relative="1" as="geometry" />
        </mxCell>
        <mxCell id="y3_0HeaWk818Rc3R_v4Z-5" value="deleted" style="ellipse;whiteSpace=wrap;html=1;" parent="1" vertex="1">
          <mxGeometry x="-70" y="160" width="80" height="40" as="geometry" />
        </mxCell>
        <mxCell id="y3_0HeaWk818Rc3R_v4Z-10" value="" style="rounded=0;orthogonalLoop=1;jettySize=auto;html=1;endArrow=none;endFill=0;" parent="1" source="y3_0HeaWk818Rc3R_v4Z-7" target="P6R_FaIMyyUO1ws6MqQ8-1" edge="1">
          <mxGeometry relative="1" as="geometry" />
        </mxCell>
        <mxCell id="y3_0HeaWk818Rc3R_v4Z-7" value="namespade_id" style="ellipse;whiteSpace=wrap;html=1;" parent="1" vertex="1">
          <mxGeometry x="280" y="60" width="90" height="40" as="geometry" />
        </mxCell>
        <mxCell id="y3_0HeaWk818Rc3R_v4Z-11" value="" style="rounded=0;orthogonalLoop=1;jettySize=auto;html=1;endArrow=none;endFill=0;" parent="1" source="y3_0HeaWk818Rc3R_v4Z-8" target="P6R_FaIMyyUO1ws6MqQ8-1" edge="1">
          <mxGeometry relative="1" as="geometry" />
        </mxCell>
        <mxCell id="y3_0HeaWk818Rc3R_v4Z-8" value="name" style="ellipse;whiteSpace=wrap;html=1;" parent="1" vertex="1">
          <mxGeometry x="374" y="40" width="80" height="40" as="geometry" />
        </mxCell>
        <mxCell id="y3_0HeaWk818Rc3R_v4Z-12" value="" style="rounded=0;orthogonalLoop=1;jettySize=auto;html=1;endArrow=none;endFill=0;" parent="1" source="y3_0HeaWk818Rc3R_v4Z-9" target="P6R_FaIMyyUO1ws6MqQ8-1" edge="1">
          <mxGeometry relative="1" as="geometry" />
        </mxCell>
        <mxCell id="y3_0HeaWk818Rc3R_v4Z-9" value="desc" style="ellipse;whiteSpace=wrap;html=1;" parent="1" vertex="1">
          <mxGeometry x="470" y="50" width="80" height="40" as="geometry" />
        </mxCell>
        <mxCell id="y3_0HeaWk818Rc3R_v4Z-17" value="" style="rounded=0;orthogonalLoop=1;jettySize=auto;html=1;endArrow=none;endFill=0;" parent="1" source="y3_0HeaWk818Rc3R_v4Z-13" target="P6R_FaIMyyUO1ws6MqQ8-3" edge="1">
          <mxGeometry relative="1" as="geometry" />
        </mxCell>
        <mxCell id="y3_0HeaWk818Rc3R_v4Z-13" value="namespace_id" style="ellipse;whiteSpace=wrap;html=1;" parent="1" vertex="1">
          <mxGeometry x="540" y="220" width="80" height="40" as="geometry" />
        </mxCell>
        <mxCell id="y3_0HeaWk818Rc3R_v4Z-18" value="" style="rounded=0;orthogonalLoop=1;jettySize=auto;html=1;endArrow=none;endFill=0;" parent="1" source="y3_0HeaWk818Rc3R_v4Z-14" target="P6R_FaIMyyUO1ws6MqQ8-3" edge="1">
          <mxGeometry relative="1" as="geometry" />
        </mxCell>
        <mxCell id="y3_0HeaWk818Rc3R_v4Z-14" value="app_id" style="ellipse;whiteSpace=wrap;html=1;" parent="1" vertex="1">
          <mxGeometry x="570" y="270" width="80" height="40" as="geometry" />
        </mxCell>
        <mxCell id="y3_0HeaWk818Rc3R_v4Z-19" value="" style="rounded=0;orthogonalLoop=1;jettySize=auto;html=1;endArrow=none;endFill=0;" parent="1" source="y3_0HeaWk818Rc3R_v4Z-15" target="P6R_FaIMyyUO1ws6MqQ8-3" edge="1">
          <mxGeometry relative="1" as="geometry" />
        </mxCell>
        <mxCell id="y3_0HeaWk818Rc3R_v4Z-15" value="name" style="ellipse;whiteSpace=wrap;html=1;" parent="1" vertex="1">
          <mxGeometry x="580" y="320" width="80" height="40" as="geometry" />
        </mxCell>
        <mxCell id="y3_0HeaWk818Rc3R_v4Z-22" value="" style="rounded=0;orthogonalLoop=1;jettySize=auto;html=1;endArrow=none;endFill=0;" parent="1" source="y3_0HeaWk818Rc3R_v4Z-20" target="P6R_FaIMyyUO1ws6MqQ8-3" edge="1">
          <mxGeometry relative="1" as="geometry" />
        </mxCell>
        <mxCell id="y3_0HeaWk818Rc3R_v4Z-20" value="slot_id" style="ellipse;whiteSpace=wrap;html=1;" parent="1" vertex="1">
          <mxGeometry x="580" y="380" width="80" height="40" as="geometry" />
        </mxCell>
        <mxCell id="UyEpr0581pfAqeQg0eXV-1" value="&lt;p class=&quot;MsoNormal&quot;&gt;&lt;span style=&quot;mso-spacerun:&#39;yes&#39;;font-family:宋体;font-size:10.5000pt;&lt;br/&gt;mso-font-kerning:1.0000pt;&quot;&gt;description&lt;/span&gt;&lt;/p&gt;" style="ellipse;whiteSpace=wrap;html=1;" vertex="1" parent="1">
          <mxGeometry x="570" y="435" width="100" height="40" as="geometry" />
        </mxCell>
        <mxCell id="UyEpr0581pfAqeQg0eXV-2" value="" style="rounded=0;orthogonalLoop=1;jettySize=auto;html=1;endArrow=none;endFill=0;exitX=0;exitY=0.5;exitDx=0;exitDy=0;entryX=1;entryY=0.75;entryDx=0;entryDy=0;" edge="1" parent="1" source="UyEpr0581pfAqeQg0eXV-1" target="P6R_FaIMyyUO1ws6MqQ8-3">
          <mxGeometry relative="1" as="geometry">
            <mxPoint x="640" y="380" as="sourcePoint" />
            <mxPoint x="470" y="370" as="targetPoint" />
          </mxGeometry>
        </mxCell>
        <mxCell id="UyEpr0581pfAqeQg0eXV-5" value="" style="rounded=0;orthogonalLoop=1;jettySize=auto;html=1;endArrow=none;endFill=0;" edge="1" parent="1" source="UyEpr0581pfAqeQg0eXV-3" target="rdNAZZPTmjT5-HZl1iVB-2">
          <mxGeometry relative="1" as="geometry" />
        </mxCell>
        <mxCell id="UyEpr0581pfAqeQg0eXV-3" value="&lt;p class=&quot;MsoNormal&quot;&gt;&lt;span style=&quot;mso-spacerun:&#39;yes&#39;;font-family:宋体;font-size:10.5000pt;&lt;br/&gt;mso-font-kerning:1.0000pt;&quot;&gt;app_id&lt;/span&gt;&lt;/p&gt;" style="ellipse;whiteSpace=wrap;html=1;" vertex="1" parent="1">
          <mxGeometry x="760" y="30" width="100" height="40" as="geometry" />
        </mxCell>
        <mxCell id="UyEpr0581pfAqeQg0eXV-12" value="" style="rounded=0;orthogonalLoop=1;jettySize=auto;html=1;endArrow=none;endFill=0;" edge="1" parent="1" source="UyEpr0581pfAqeQg0eXV-8" target="rdNAZZPTmjT5-HZl1iVB-2">
          <mxGeometry relative="1" as="geometry" />
        </mxCell>
        <mxCell id="UyEpr0581pfAqeQg0eXV-8" value="namespace_id" style="ellipse;whiteSpace=wrap;html=1;" vertex="1" parent="1">
          <mxGeometry x="810" y="80" width="80" height="40" as="geometry" />
        </mxCell>
        <mxCell id="UyEpr0581pfAqeQg0eXV-17" value="" style="rounded=0;orthogonalLoop=1;jettySize=auto;html=1;endArrow=none;endFill=0;" edge="1" parent="1" source="UyEpr0581pfAqeQg0eXV-9" target="rdNAZZPTmjT5-HZl1iVB-2">
          <mxGeometry relative="1" as="geometry" />
        </mxCell>
        <mxCell id="UyEpr0581pfAqeQg0eXV-9" value="worker_key" style="ellipse;whiteSpace=wrap;html=1;" vertex="1" parent="1">
          <mxGeometry x="820" y="140" width="80" height="40" as="geometry" />
        </mxCell>
        <mxCell id="UyEpr0581pfAqeQg0eXV-14" value="" style="rounded=0;orthogonalLoop=1;jettySize=auto;html=1;endArrow=none;endFill=0;" edge="1" parent="1" source="UyEpr0581pfAqeQg0eXV-10" target="rdNAZZPTmjT5-HZl1iVB-2">
          <mxGeometry relative="1" as="geometry" />
        </mxCell>
        <mxCell id="UyEpr0581pfAqeQg0eXV-10" value="slot_id" style="ellipse;whiteSpace=wrap;html=1;" vertex="1" parent="1">
          <mxGeometry x="820" y="195" width="80" height="40" as="geometry" />
        </mxCell>
        <mxCell id="UyEpr0581pfAqeQg0eXV-18" value="" style="rounded=0;orthogonalLoop=1;jettySize=auto;html=1;endArrow=none;endFill=0;" edge="1" parent="1" source="UyEpr0581pfAqeQg0eXV-11" target="rdNAZZPTmjT5-HZl1iVB-2">
          <mxGeometry relative="1" as="geometry" />
        </mxCell>
        <mxCell id="UyEpr0581pfAqeQg0eXV-11" value="address" style="ellipse;whiteSpace=wrap;html=1;" vertex="1" parent="1">
          <mxGeometry x="790" y="260" width="80" height="40" as="geometry" />
        </mxCell>
        <mxCell id="UyEpr0581pfAqeQg0eXV-21" value="" style="rounded=0;orthogonalLoop=1;jettySize=auto;html=1;endArrow=none;endFill=0;" edge="1" parent="1" source="UyEpr0581pfAqeQg0eXV-19" target="rdNAZZPTmjT5-HZl1iVB-3">
          <mxGeometry relative="1" as="geometry" />
        </mxCell>
        <mxCell id="UyEpr0581pfAqeQg0eXV-19" value="ip" style="ellipse;whiteSpace=wrap;html=1;" vertex="1" parent="1">
          <mxGeometry x="50" y="610" width="80" height="40" as="geometry" />
        </mxCell>
        <mxCell id="UyEpr0581pfAqeQg0eXV-22" value="" style="rounded=0;orthogonalLoop=1;jettySize=auto;html=1;endArrow=none;endFill=0;" edge="1" parent="1" source="UyEpr0581pfAqeQg0eXV-20" target="rdNAZZPTmjT5-HZl1iVB-3">
          <mxGeometry relative="1" as="geometry" />
        </mxCell>
        <mxCell id="UyEpr0581pfAqeQg0eXV-20" value="akka_address" style="ellipse;whiteSpace=wrap;html=1;" vertex="1" parent="1">
          <mxGeometry x="150" y="620" width="80" height="40" as="geometry" />
        </mxCell>
        <mxCell id="UyEpr0581pfAqeQg0eXV-24" value="" style="rounded=0;orthogonalLoop=1;jettySize=auto;html=1;endArrow=none;endFill=0;" edge="1" parent="1" source="UyEpr0581pfAqeQg0eXV-23" target="rdNAZZPTmjT5-HZl1iVB-3">
          <mxGeometry relative="1" as="geometry" />
        </mxCell>
        <mxCell id="UyEpr0581pfAqeQg0eXV-23" value="status" style="ellipse;whiteSpace=wrap;html=1;" vertex="1" parent="1">
          <mxGeometry x="-40" y="520" width="80" height="40" as="geometry" />
        </mxCell>
        <mxCell id="UyEpr0581pfAqeQg0eXV-27" value="" style="rounded=0;orthogonalLoop=1;jettySize=auto;html=1;endArrow=none;endFill=0;" edge="1" parent="1" source="UyEpr0581pfAqeQg0eXV-25" target="P6R_FaIMyyUO1ws6MqQ8-7">
          <mxGeometry relative="1" as="geometry" />
        </mxCell>
        <mxCell id="UyEpr0581pfAqeQg0eXV-25" value="server_id" style="ellipse;whiteSpace=wrap;html=1;" vertex="1" parent="1">
          <mxGeometry x="-60" y="340" width="80" height="40" as="geometry" />
        </mxCell>
        <mxCell id="UyEpr0581pfAqeQg0eXV-28" value="" style="rounded=0;orthogonalLoop=1;jettySize=auto;html=1;endArrow=none;endFill=0;" edge="1" parent="1" source="UyEpr0581pfAqeQg0eXV-26" target="P6R_FaIMyyUO1ws6MqQ8-7">
          <mxGeometry relative="1" as="geometry" />
        </mxCell>
        <mxCell id="UyEpr0581pfAqeQg0eXV-26" value="deleted" style="ellipse;whiteSpace=wrap;html=1;" vertex="1" parent="1">
          <mxGeometry x="-50" y="420" width="80" height="40" as="geometry" />
        </mxCell>
        <mxCell id="UyEpr0581pfAqeQg0eXV-31" value="" style="rounded=0;orthogonalLoop=1;jettySize=auto;html=1;endArrow=none;endFill=0;" edge="1" parent="1" source="UyEpr0581pfAqeQg0eXV-29" target="P6R_FaIMyyUO1ws6MqQ8-7">
          <mxGeometry relative="1" as="geometry" />
        </mxCell>
        <mxCell id="UyEpr0581pfAqeQg0eXV-29" value="id" style="ellipse;whiteSpace=wrap;html=1;" vertex="1" parent="1">
          <mxGeometry x="-20" y="270" width="80" height="40" as="geometry" />
        </mxCell>
        <mxCell id="UyEpr0581pfAqeQg0eXV-34" value="" style="rounded=0;orthogonalLoop=1;jettySize=auto;html=1;endArrow=none;endFill=0;" edge="1" parent="1" source="UyEpr0581pfAqeQg0eXV-32" target="P6R_FaIMyyUO1ws6MqQ8-6">
          <mxGeometry relative="1" as="geometry" />
        </mxCell>
        <mxCell id="UyEpr0581pfAqeQg0eXV-32" value="job_id" style="ellipse;whiteSpace=wrap;html=1;" vertex="1" parent="1">
          <mxGeometry x="220" y="515" width="80" height="40" as="geometry" />
        </mxCell>
        <mxCell id="UyEpr0581pfAqeQg0eXV-35" value="" style="rounded=0;orthogonalLoop=1;jettySize=auto;html=1;endArrow=none;endFill=0;" edge="1" parent="1" source="UyEpr0581pfAqeQg0eXV-33" target="P6R_FaIMyyUO1ws6MqQ8-6">
          <mxGeometry relative="1" as="geometry" />
        </mxCell>
        <mxCell id="UyEpr0581pfAqeQg0eXV-33" value="params" style="ellipse;whiteSpace=wrap;html=1;" vertex="1" parent="1">
          <mxGeometry x="240" y="570" width="80" height="40" as="geometry" />
        </mxCell>
        <mxCell id="UyEpr0581pfAqeQg0eXV-37" value="" style="rounded=0;orthogonalLoop=1;jettySize=auto;html=1;endArrow=none;endFill=0;" edge="1" parent="1" source="UyEpr0581pfAqeQg0eXV-36" target="P6R_FaIMyyUO1ws6MqQ8-6">
          <mxGeometry relative="1" as="geometry" />
        </mxCell>
        <mxCell id="UyEpr0581pfAqeQg0eXV-36" value="slot_id" style="ellipse;whiteSpace=wrap;html=1;" vertex="1" parent="1">
          <mxGeometry x="350" y="620" width="80" height="40" as="geometry" />
        </mxCell>
        <mxCell id="UyEpr0581pfAqeQg0eXV-39" value="" style="rounded=0;orthogonalLoop=1;jettySize=auto;html=1;endArrow=none;endFill=0;" edge="1" parent="1" source="UyEpr0581pfAqeQg0eXV-38" target="P6R_FaIMyyUO1ws6MqQ8-6">
          <mxGeometry relative="1" as="geometry" />
        </mxCell>
        <mxCell id="UyEpr0581pfAqeQg0eXV-38" value="&lt;p class=&quot;MsoNormal&quot;&gt;&lt;span style=&quot;mso-spacerun:&#39;yes&#39;;font-family:宋体;font-size:10.5000pt;&lt;br/&gt;mso-font-kerning:1.0000pt;&quot;&gt;params_type&lt;/span&gt;&lt;/p&gt;" style="ellipse;whiteSpace=wrap;html=1;" vertex="1" parent="1">
          <mxGeometry x="470" y="620" width="90" height="40" as="geometry" />
        </mxCell>
        <mxCell id="UyEpr0581pfAqeQg0eXV-43" value="" style="rounded=0;orthogonalLoop=1;jettySize=auto;html=1;endArrow=none;endFill=0;" edge="1" parent="1" source="UyEpr0581pfAqeQg0eXV-40" target="rdNAZZPTmjT5-HZl1iVB-1">
          <mxGeometry relative="1" as="geometry" />
        </mxCell>
        <mxCell id="UyEpr0581pfAqeQg0eXV-40" value="&lt;p class=&quot;MsoNormal&quot;&gt;&lt;span style=&quot;mso-spacerun:&#39;yes&#39;;font-family:宋体;font-size:10.5000pt;&lt;br/&gt;mso-font-kerning:1.0000pt;&quot;&gt;job_id&lt;/span&gt;&lt;/p&gt;" style="ellipse;whiteSpace=wrap;html=1;" vertex="1" parent="1">
          <mxGeometry x="660" y="600" width="80" height="40" as="geometry" />
        </mxCell>
        <mxCell id="UyEpr0581pfAqeQg0eXV-44" value="" style="rounded=0;orthogonalLoop=1;jettySize=auto;html=1;endArrow=none;endFill=0;" edge="1" parent="1" source="UyEpr0581pfAqeQg0eXV-41" target="rdNAZZPTmjT5-HZl1iVB-1">
          <mxGeometry relative="1" as="geometry" />
        </mxCell>
        <mxCell id="UyEpr0581pfAqeQg0eXV-41" value="&lt;p class=&quot;MsoNormal&quot;&gt;&lt;span style=&quot;mso-spacerun:&#39;yes&#39;;font-family:宋体;font-size:10.5000pt;&lt;br/&gt;mso-font-kerning:1.0000pt;&quot;&gt;job_instance_id&lt;/span&gt;&lt;/p&gt;" style="ellipse;whiteSpace=wrap;html=1;" vertex="1" parent="1">
          <mxGeometry x="790" y="520" width="123" height="40" as="geometry" />
        </mxCell>
        <mxCell id="UyEpr0581pfAqeQg0eXV-45" value="" style="rounded=0;orthogonalLoop=1;jettySize=auto;html=1;endArrow=none;endFill=0;" edge="1" parent="1" source="UyEpr0581pfAqeQg0eXV-42" target="rdNAZZPTmjT5-HZl1iVB-1">
          <mxGeometry relative="1" as="geometry" />
        </mxCell>
        <mxCell id="UyEpr0581pfAqeQg0eXV-42" value="&lt;p class=&quot;MsoNormal&quot;&gt;&lt;span style=&quot;mso-spacerun:&#39;yes&#39;;font-family:宋体;font-size:10.5000pt;&lt;br/&gt;mso-font-kerning:1.0000pt;&quot;&gt;message&lt;/span&gt;&lt;/p&gt;" style="ellipse;whiteSpace=wrap;html=1;" vertex="1" parent="1">
          <mxGeometry x="740" y="440" width="80" height="40" as="geometry" />
        </mxCell>
      </root>
    </mxGraphModel>
  </diagram>
</mxfile>
